<svg viewBox="0 0 24 24" fill="none" xmlns="http://www.w3.org/2000/svg">
  <path d="M19.27 5.33A17.4 17.4 0 0 0 14.5 4c-.26.46-.48.94-.68 1.42a16.1 16.1 0 0 0-4.64 0A9.6 9.6 0 0 0 8.5 4a17.4 17.4 0 0 0-4.77 1.33A18.6 18.6 0 0 0 .5 16.17a17.4 17.4 0 0 0 5.33 2.7c.42-.58.8-1.2 1.12-1.84a11.2 11.2 0 0 1-1.79-.87c.15-.11.3-.22.44-.34a12.5 12.5 0 0 0 10.8 0c.14.12.29.23.44.34-.57.34-1.17.63-1.79.87.32.65.7 1.27 1.12 1.84a17.3 17.3 0 0 0 5.33-2.7 18.5 18.5 0 0 0-2.77-10.84zM8.96 13.72c-.88 0-1.72-.74-1.72-1.7s.76-1.7 1.72-1.7 1.74.74 1.72 1.7-.77 1.7-1.72 1.7zm6.08 0c-.88 0-1.72-.74-1.72-1.7s.76-1.7 1.72-1.7 1.73.74 1.72 1.7-.76 1.7-1.72 1.7z" stroke="currentColor" stroke-width="1.4"/>
</svg>
